<svg width="133" height="51" viewBox="0 0 133 51" fill="none" xmlns="http://www.w3.org/2000/svg">
<path d="M25.9378 0L30.811 10.7067L41.1836 4.84827L38.6961 16.3136L50.606 17.5412L41.7079 25.3859L50.606 33.2306L38.6961 34.4581L41.1836 45.9235L30.811 40.0651L25.9378 50.7718L21.0645 40.0651L10.6919 45.9235L13.1794 34.4581L1.26948 33.2306L10.1676 25.3859L1.26948 17.5412L13.1794 16.3136L10.6919 4.84827L21.0645 10.7067L25.9378 0Z" fill="#C4FBB4"/>
<path d="M40.0902 11.978C39.9975 14.2164 39.9512 16.6137 39.9512 19.1699C39.9512 21.7394 39.9975 24.1433 40.0902 26.3817H32.9778L28.1699 15.5342L28.5275 26.3817H23.4216C23.5276 23.8122 23.5806 21.4083 23.5806 19.1699C23.5806 16.9448 23.5276 14.5475 23.4216 11.978H30.7328L35.5605 23.1235L35.2228 11.978H40.0902ZM48.0758 26.5804C45.8109 26.5804 44.1421 26.0638 43.0692 25.0307C42.0097 23.9844 41.4799 22.6136 41.4799 20.9182C41.4799 19.2626 42.0097 17.9183 43.0692 16.8852C44.1421 15.8521 45.8109 15.3355 48.0758 15.3355C49.5989 15.3355 50.8704 15.5872 51.8903 16.0905C52.9234 16.5806 53.685 17.2494 54.175 18.0971C54.6651 18.9315 54.9101 19.8719 54.9101 20.9182C54.9101 22.6268 54.3406 23.9976 53.2015 25.0307C52.0757 26.0638 50.3671 26.5804 48.0758 26.5804ZM48.1552 23.203C49.0162 23.203 49.6585 22.9977 50.0824 22.5871C50.5062 22.1765 50.7181 21.6268 50.7181 20.9381C50.7181 20.2891 50.5062 19.7593 50.0824 19.3487C49.6585 18.9249 49.0162 18.713 48.1552 18.713C47.2943 18.713 46.6652 18.9183 46.2679 19.3288C45.8705 19.7394 45.6718 20.2759 45.6718 20.9381C45.6718 21.6268 45.8705 22.1765 46.2679 22.5871C46.6652 22.9977 47.2943 23.203 48.1552 23.203ZM60.9165 18.4746C61.4728 16.4746 62.8569 15.4746 65.0688 15.4746C65.4529 15.4746 65.8237 15.5011 66.1813 15.5541L65.5456 20.0043C64.592 19.6467 63.8105 19.4679 63.2013 19.4679C62.4463 19.4679 61.89 19.6931 61.5324 20.1434C61.1748 20.5937 60.996 21.1964 60.996 21.9513V21.9315L60.9761 23.2427C60.9761 24.1831 61.0026 25.2294 61.0556 26.3817H56.3073C56.4133 24.4745 56.4663 22.6732 56.4663 20.9778C56.4663 19.2825 56.4133 17.468 56.3073 15.5342C57.1815 15.5739 57.8503 15.5938 58.3139 15.5938C58.804 15.5938 59.4728 15.5739 60.3205 15.5342L60.9165 18.4746ZM76.7735 19.0904C75.555 19.011 74.4424 18.9514 73.4358 18.9116L73.416 21.0176C73.416 21.7328 73.5683 22.2957 73.8729 22.7063C74.1908 23.1036 74.7471 23.3023 75.5417 23.3023C75.8464 23.3023 76.1378 23.2758 76.4159 23.2228C76.3629 23.7129 76.3364 24.2096 76.3364 24.7129C76.3364 24.9513 76.3497 25.4943 76.3762 26.342C75.7934 26.4479 75.3033 26.5142 74.906 26.5407C74.5086 26.5671 73.9921 26.5804 73.3563 26.5804C71.8067 26.5804 70.7074 26.2095 70.0584 25.4678C69.4226 24.7129 69.1048 23.6665 69.1048 22.3288L69.1246 18.9712C68.5021 18.9977 67.8531 19.0375 67.1776 19.0904V15.5739C67.8664 15.5739 68.4491 15.3554 68.926 14.9183C69.4028 14.4812 69.6875 13.9581 69.7802 13.3488H75.1841C74.5086 14.276 73.7603 15.0177 72.9391 15.5739H76.7735V19.0904ZM85.7077 26.3817C85.7872 24.4347 85.8269 22.6401 85.8269 20.9977C85.8269 20.4149 85.6812 19.9514 85.3898 19.607C85.1117 19.2626 84.7541 19.0904 84.317 19.0904C83.8534 19.0904 83.4561 19.3156 83.125 19.7659C82.8071 20.2163 82.6482 20.8321 82.6482 21.6136L82.6283 21.5738C82.6283 23.7327 82.6548 25.3354 82.7078 26.3817H77.9595C78.0655 24.4745 78.1184 21.8917 78.1184 18.6335C78.1184 15.3753 78.0655 12.7925 77.9595 10.8853H82.6879L82.7078 17.0044L82.6879 18.0573C83.0058 17.1302 83.476 16.4481 84.0985 16.011C84.7342 15.5607 85.4494 15.3355 86.2441 15.3355C87.0388 15.3355 87.7275 15.5143 88.3103 15.872C88.8931 16.2163 89.3302 16.6865 89.6216 17.2825C89.9262 17.8785 90.0785 18.5474 90.0785 19.2891V22.15C90.0785 23.9116 90.1116 25.3221 90.1778 26.3817H85.7077ZM102.283 21.4149H95.8065C95.9124 21.9977 96.1707 22.4745 96.5813 22.8453C97.0051 23.203 97.6011 23.3818 98.3693 23.3818C98.9256 23.3818 99.4488 23.2758 99.9389 23.0639C100.429 22.8387 100.82 22.5275 101.111 22.1301C101.998 22.5672 103.177 23.0374 104.647 23.5407C104.237 24.4678 103.488 25.2095 102.402 25.7658C101.33 26.3089 99.9256 26.5804 98.1905 26.5804C95.9389 26.5804 94.2701 26.0638 93.184 25.0307C92.1112 23.9844 91.5747 22.6136 91.5747 20.9182C91.5747 19.2626 92.1112 17.9183 93.184 16.8852C94.2568 15.8521 95.9257 15.3355 98.1905 15.3355C99.5415 15.3355 100.714 15.5607 101.707 16.011C102.7 16.4613 103.462 17.0905 103.992 17.8984C104.522 18.6931 104.786 19.607 104.786 20.6401C104.786 20.9845 104.773 21.2427 104.747 21.4149H102.283ZM98.4687 18.3355C97.8064 18.3355 97.2634 18.4613 96.8396 18.713C96.4157 18.9646 96.1177 19.309 95.9455 19.7461H100.634C100.475 19.3222 100.217 18.9845 99.8594 18.7328C99.5018 18.4679 99.0382 18.3355 98.4687 18.3355ZM110.779 18.4746C111.335 16.4746 112.719 15.4746 114.931 15.4746C115.315 15.4746 115.686 15.5011 116.043 15.5541L115.408 20.0043C114.454 19.6467 113.673 19.4679 113.063 19.4679C112.308 19.4679 111.752 19.6931 111.394 20.1434C111.037 20.5937 110.858 21.1964 110.858 21.9513V21.9315L110.838 23.2427C110.838 24.1831 110.865 25.2294 110.918 26.3817H106.169C106.275 24.4745 106.328 22.6732 106.328 20.9778C106.328 19.2825 106.275 17.468 106.169 15.5342C107.044 15.5739 107.712 15.5938 108.176 15.5938C108.666 15.5938 109.335 15.5739 110.183 15.5342L110.779 18.4746ZM125.384 26.3817C125.463 24.4347 125.503 22.6401 125.503 20.9977C125.503 20.4149 125.357 19.9514 125.066 19.607C124.788 19.2626 124.43 19.0904 123.993 19.0904C123.556 19.0904 123.185 19.2891 122.881 19.6865C122.576 20.0706 122.397 20.6004 122.344 21.2758C122.318 22.2824 122.305 22.9977 122.305 23.4215C122.305 24.3221 122.331 25.3089 122.384 26.3817H117.636C117.742 24.4745 117.795 22.6732 117.795 20.9778C117.795 19.2825 117.742 17.468 117.636 15.5342C118.51 15.5739 119.179 15.5938 119.642 15.5938C120.132 15.5938 120.801 15.5739 121.649 15.5342L122.225 18.4547C122.53 17.3951 123.007 16.6137 123.656 16.1104C124.304 15.5938 125.059 15.3355 125.92 15.3355C126.715 15.3355 127.404 15.5143 127.987 15.872C128.569 16.2163 129.006 16.6865 129.298 17.2825C129.602 17.8785 129.755 18.5474 129.755 19.2891V22.15C129.755 23.9116 129.788 25.3221 129.854 26.3817H125.384ZM28.2692 38.3685C32.1102 38.342 35.289 38.2758 37.8055 38.1699C37.6333 38.8453 37.5274 39.4943 37.4876 40.1168C37.4479 40.7394 37.428 41.4943 37.428 42.3817H23.4216C23.5276 39.8122 23.5806 37.4083 23.5806 35.1699C23.5806 32.9315 23.5276 30.5276 23.4216 27.9581H28.2692V38.3685ZM42.0514 30.362C41.2169 30.362 40.5944 30.1567 40.1838 29.7462C39.7865 29.3356 39.5878 28.7992 39.5878 28.1369C39.5878 27.4879 39.7865 26.9515 40.1838 26.5277C40.5944 26.1038 41.2169 25.8919 42.0514 25.8919C42.846 25.8919 43.4553 26.1105 43.8791 26.5475C44.303 26.9714 44.5149 27.5012 44.5149 28.1369C44.5149 28.7992 44.3096 29.3356 43.899 29.7462C43.4884 30.1567 42.8725 30.362 42.0514 30.362ZM39.7468 42.3817C39.8395 40.2493 39.8858 38.4877 39.8858 37.097C39.8858 35.4414 39.8328 33.5872 39.7269 31.5342H44.495C44.3891 33.5077 44.3361 35.362 44.3361 37.097C44.3361 38.554 44.3824 40.3155 44.4752 42.3817H39.7468ZM55.6734 31.5342H59.4879C59.4217 33.7064 59.3886 36.7924 59.3886 40.7923C59.3886 42.3685 59.0707 43.6598 58.435 44.6664C57.8125 45.673 56.9847 46.4015 55.9516 46.8518C54.9185 47.3154 53.7662 47.5472 52.4947 47.5472C51.2364 47.5472 50.1106 47.3618 49.1173 46.9909C48.1239 46.6333 47.3689 46.1499 46.8524 45.5406L47.7464 42.5009C48.4616 42.9115 49.1371 43.2029 49.7729 43.3751C50.4086 43.5605 51.0709 43.6532 51.7596 43.6532C54.0112 43.6532 55.137 42.6996 55.137 40.7923C55.137 40.5142 55.1436 40.3155 55.1569 40.1963C55.1569 40.1168 55.1569 40.0109 55.1569 39.8784C55.1701 39.746 55.1701 39.5738 55.1569 39.3619C54.4814 41.2427 53.051 42.183 50.8656 42.183C49.9782 42.183 49.1835 41.9446 48.4815 41.4678C47.7928 40.991 47.2564 40.3486 46.8723 39.5407C46.4882 38.7195 46.2961 37.8189 46.2961 36.8388C46.2961 35.8322 46.4882 34.9116 46.8723 34.0772C47.2564 33.2295 47.7928 32.5607 48.4815 32.0706C49.1702 31.5806 49.9451 31.3355 50.806 31.3355C53.0443 31.3355 54.5013 32.1236 55.1768 33.6997L55.6734 31.5342ZM52.9318 39.0043C53.2364 39.0043 53.5543 38.9381 53.8854 38.8056C54.2165 38.6599 54.5013 38.4348 54.7397 38.1301C54.9781 37.8123 55.0973 37.4215 55.0973 36.958C55.0973 36.1368 54.9119 35.554 54.541 35.2096C54.1702 34.852 53.6205 34.6732 52.892 34.6732C52.2563 34.6732 51.753 34.8851 51.3821 35.309C51.0113 35.7328 50.8258 36.2825 50.8258 36.958C50.8258 37.5672 51.0245 38.0639 51.4219 38.448C51.8324 38.8189 52.3357 39.0043 52.9318 39.0043ZM68.8283 42.3817C68.9078 40.4347 68.9475 38.6401 68.9475 36.9977C68.9475 36.4149 68.8018 35.9514 68.5105 35.607C68.2323 35.2626 67.8747 35.0904 67.4376 35.0904C66.9741 35.0904 66.5767 35.3156 66.2456 35.7659C65.9277 36.2163 65.7688 36.8321 65.7688 37.6136L65.7489 37.5738C65.7489 39.7327 65.7754 41.3354 65.8284 42.3817H61.0801C61.1861 40.4745 61.2391 37.8917 61.2391 34.6335C61.2391 31.3753 61.1861 28.7925 61.0801 26.8853H65.8085L65.8284 33.0044L65.8085 34.0573C66.1264 33.1302 66.5966 32.4481 67.2191 32.011C67.8548 31.5607 68.5701 31.3355 69.3647 31.3355C70.1594 31.3355 70.8482 31.5143 71.4309 31.872C72.0137 32.2163 72.4508 32.6865 72.7422 33.2825C73.0468 33.8785 73.1991 34.5474 73.1991 35.2891V38.15C73.1991 39.9116 73.2322 41.3221 73.2985 42.3817H68.8283ZM83.5059 35.0904C82.2873 35.011 81.1748 34.9514 80.1682 34.9116L80.1483 37.0176C80.1483 37.7328 80.3006 38.2957 80.6052 38.7063C80.9231 39.1036 81.4794 39.3023 82.2741 39.3023C82.5787 39.3023 82.8701 39.2758 83.1483 39.2228C83.0953 39.7129 83.0688 40.2096 83.0688 40.7129C83.0688 40.9513 83.082 41.4943 83.1085 42.342C82.5257 42.4479 82.0357 42.5142 81.6383 42.5406C81.241 42.5671 80.7244 42.5804 80.0887 42.5804C78.5391 42.5804 77.4397 42.2095 76.7907 41.4678C76.155 40.7129 75.8371 39.6665 75.8371 38.3288L75.857 34.9712C75.2345 34.9977 74.5855 35.0375 73.91 35.0904V31.5739C74.5987 31.5739 75.1815 31.3554 75.6583 30.9183C76.1351 30.4812 76.4199 29.9581 76.5126 29.3488H81.9165C81.241 30.276 80.4927 31.0177 79.6715 31.5739H83.5059V35.0904ZM91.109 42.5804C89.9964 42.5804 88.864 42.4281 87.7117 42.1234C86.5726 41.8056 85.4998 41.3287 84.4932 40.693L86.5792 37.852C87.1885 38.2891 87.9236 38.6334 88.7845 38.8851C89.6454 39.1235 90.3871 39.2427 91.0096 39.2427C91.6056 39.2427 92.0626 39.1632 92.3805 39.0043C92.7116 38.8321 92.8771 38.6136 92.8771 38.3487C92.8771 38.1367 92.7977 37.9712 92.6387 37.852C92.4798 37.7328 92.2613 37.6732 91.9831 37.6732C91.8109 37.6732 91.6123 37.6798 91.3871 37.693C91.1752 37.7063 91.003 37.7195 90.8705 37.7328C90.1818 37.8123 89.4732 37.852 88.7448 37.852C87.566 37.852 86.6057 37.6334 85.864 37.1964C85.1355 36.746 84.7713 36.0176 84.7713 35.011C84.7713 33.8454 85.321 32.9448 86.4203 32.309C87.5196 31.66 89.1355 31.3355 91.2679 31.3355C92.3142 31.3355 93.3672 31.4879 94.4268 31.7925C95.4996 32.0839 96.4466 32.5276 97.2678 33.1236L94.9831 35.4282C94.2281 35.0308 93.5195 34.7527 92.8573 34.5938C92.2083 34.4216 91.5527 34.3355 90.8904 34.3355C90.4268 34.3355 90.0295 34.4282 89.6984 34.6136C89.3673 34.7991 89.2017 35.011 89.2017 35.2494C89.2017 35.4348 89.2679 35.5805 89.4004 35.6865C89.5461 35.7924 89.7315 35.8454 89.9567 35.8454C90.1818 35.8454 90.4931 35.8255 90.8904 35.7858C91.8573 35.7196 92.5791 35.6865 93.0559 35.6865C94.4334 35.6865 95.4996 35.9182 96.2546 36.3818C97.0095 36.8454 97.387 37.554 97.387 38.5076C97.387 39.938 96.8307 40.9778 95.7181 41.6268C94.6056 42.2625 93.0692 42.5804 91.109 42.5804Z" fill="black"/>
</svg>
